<svg width="2263" height="1488" viewBox="0 0 2263 1488" fill="none" xmlns="http://www.w3.org/2000/svg">
<path d="M1457.29 676.64C1457.28 676.409 1457.33 676.18 1457.42 675.967C1457.51 675.754 1457.65 675.564 1457.82 675.407C1457.99 675.251 1458.19 675.132 1458.41 675.06C1458.63 674.987 1458.86 674.961 1459.09 674.985C1460.18 674.985 1460.98 675.551 1460.98 676.64C1461.02 704.377 1472.05 730.968 1491.65 750.597C1511.25 770.225 1537.83 781.295 1565.58 781.383C1566.04 781.353 1566.5 781.504 1566.86 781.804C1567.22 782.105 1567.45 782.531 1567.5 782.996C1567.51 783.25 1567.46 783.502 1567.36 783.737C1567.27 783.972 1567.13 784.186 1566.95 784.365C1566.77 784.545 1566.55 784.687 1566.32 784.783C1566.08 784.878 1565.83 784.926 1565.58 784.923C1536.86 784.907 1509.32 773.492 1489.02 753.188C1468.71 732.884 1457.3 705.352 1457.29 676.64Z" fill="#8CB63F"/>
<g style="mix-blend-mode:multiply">
<g style="mix-blend-mode:multiply">
<path d="M1563.82 570.347C1563.81 570.105 1563.84 569.863 1563.93 569.635C1564.01 569.407 1564.13 569.198 1564.3 569.019C1564.46 568.84 1564.66 568.695 1564.88 568.592C1565.1 568.489 1565.34 568.431 1565.58 568.42C1594.29 568.459 1621.82 579.867 1642.14 600.148C1662.47 620.43 1673.92 647.933 1674.01 676.64C1674.01 677.129 1673.82 677.598 1673.47 677.944C1673.13 678.29 1672.66 678.484 1672.17 678.484C1671.68 678.484 1671.21 678.29 1670.87 677.944C1670.52 677.598 1670.32 677.129 1670.32 676.64C1670.25 648.912 1659.17 622.345 1639.54 602.765C1619.9 583.186 1593.29 572.191 1565.56 572.191C1565.11 572.116 1564.69 571.895 1564.38 571.562C1564.06 571.229 1563.87 570.802 1563.82 570.347Z" fill="#8CB63F"/>
</g>
</g>
<g style="mix-blend-mode:multiply">
<g style="mix-blend-mode:multiply">
<path d="M1797.62 570.347C1797.59 570.789 1797.39 571.203 1797.06 571.503C1796.73 571.803 1796.3 571.966 1795.86 571.96C1768.09 572.004 1741.46 583.054 1721.82 602.687C1702.19 622.321 1691.13 648.937 1691.09 676.703C1691.09 676.933 1691.04 677.161 1690.95 677.372C1690.86 677.583 1690.72 677.772 1690.55 677.928C1690.38 678.084 1690.18 678.202 1689.97 678.276C1689.75 678.35 1689.52 678.378 1689.29 678.358C1688.2 678.358 1687.38 677.792 1687.38 676.703C1687.41 647.973 1698.85 620.43 1719.18 600.129C1739.51 579.827 1767.08 568.429 1795.82 568.44C1796.06 568.446 1796.3 568.5 1796.52 568.599C1796.75 568.698 1796.95 568.84 1797.12 569.017C1797.28 569.195 1797.41 569.403 1797.5 569.632C1797.59 569.86 1797.63 570.103 1797.62 570.347Z" fill="#F16722"/>
</g>
</g>
<g style="mix-blend-mode:multiply">
<g style="mix-blend-mode:multiply">
<path d="M1904.17 676.639C1904.1 705.337 1892.67 732.841 1872.37 753.134C1852.07 773.426 1824.56 784.856 1795.86 784.923C1795.6 784.925 1795.35 784.877 1795.12 784.782C1794.88 784.686 1794.67 784.544 1794.49 784.364C1794.31 784.185 1794.17 783.971 1794.07 783.736C1793.98 783.501 1793.93 783.249 1793.93 782.995C1793.97 782.501 1794.19 782.037 1794.54 781.688C1794.9 781.339 1795.36 781.127 1795.86 781.089C1823.57 781.056 1850.14 770.046 1869.76 750.47C1889.37 730.894 1900.42 704.346 1900.5 676.639C1900.5 676.387 1900.54 676.137 1900.63 675.903C1900.73 675.669 1900.87 675.457 1901.05 675.278C1901.23 675.1 1901.44 674.96 1901.67 674.866C1901.91 674.773 1902.16 674.727 1902.41 674.733C1902.89 674.755 1903.35 674.967 1903.68 675.324C1904.01 675.681 1904.19 676.154 1904.17 676.639Z" fill="#F16722"/>
</g>
</g>
<g style="mix-blend-mode:multiply">
<g style="mix-blend-mode:multiply">
<path d="M2133.57 676.64C2133.57 676.871 2133.53 677.101 2133.44 677.313C2133.35 677.526 2133.21 677.716 2133.04 677.873C2132.87 678.029 2132.67 678.148 2132.45 678.22C2132.23 678.293 2132 678.319 2131.77 678.295C2130.68 678.295 2129.86 677.729 2129.86 676.64C2129.82 648.901 2118.79 622.307 2099.19 602.677C2079.59 583.047 2053 571.98 2025.26 571.897C2024.79 571.927 2024.33 571.776 2023.97 571.476C2023.61 571.175 2023.38 570.749 2023.33 570.284C2023.33 570.03 2023.38 569.778 2023.47 569.543C2023.57 569.308 2023.71 569.094 2023.89 568.915C2024.07 568.735 2024.28 568.593 2024.52 568.498C2024.75 568.402 2025.01 568.354 2025.26 568.357C2053.98 568.373 2081.52 579.787 2101.83 600.09C2122.14 620.394 2133.55 647.926 2133.57 676.64Z" fill="#FFCC05"/>
</g>
</g>
<path d="M2027.02 783.038C2027.03 783.28 2026.99 783.522 2026.91 783.75C2026.83 783.978 2026.7 784.188 2026.54 784.367C2026.38 784.546 2026.18 784.691 2025.96 784.793C2025.74 784.896 2025.5 784.954 2025.26 784.965C1996.53 784.926 1968.98 773.504 1948.66 753.2C1928.33 732.896 1916.88 705.365 1916.82 676.64C1916.8 676.38 1916.82 676.117 1916.9 675.868C1916.98 675.619 1917.12 675.39 1917.29 675.196C1917.47 675.002 1917.68 674.846 1917.92 674.74C1918.16 674.633 1918.42 674.578 1918.68 674.578C1918.94 674.578 1919.2 674.633 1919.44 674.74C1919.68 674.846 1919.89 675.002 1920.07 675.196C1920.24 675.39 1920.37 675.619 1920.45 675.868C1920.53 676.117 1920.56 676.38 1920.53 676.64C1920.61 704.369 1931.68 730.935 1951.32 750.515C1970.96 770.095 1997.57 781.09 2025.3 781.09C2025.77 781.174 2026.19 781.412 2026.5 781.765C2026.81 782.119 2026.99 782.567 2027.02 783.038Z" fill="#FFCC05"/>
<path d="M1602.96 631.475L1594.83 639.603C1587.68 632.794 1579.55 629.317 1567.27 629.317C1551.33 629.317 1542.13 638.115 1542.13 651.397C1542.13 657.199 1543.79 662.018 1547.45 665.16C1551.96 668.548 1557.29 670.667 1562.89 671.298L1576.66 673.393C1587.62 675.069 1592.77 677.059 1598.08 681.772C1601.34 684.68 1603.93 688.271 1605.65 692.289C1607.37 696.307 1608.19 700.655 1608.05 705.025C1608.05 725.764 1591.94 738.543 1567.21 738.543C1549.61 738.543 1537.88 734.06 1526.85 722.936L1535.24 714.557C1545.04 724.361 1554.09 727.335 1567.44 727.335C1584.88 727.335 1595.5 719.375 1595.5 705.444C1595.5 699.159 1593.68 694.153 1589.69 690.654C1586.05 687.344 1582.72 686.171 1574.25 684.852L1560.63 682.924C1551.33 681.437 1544.35 678.609 1539.05 673.958C1533.06 668.658 1529.91 661.389 1529.91 651.711C1529.91 631.642 1544.35 618.528 1567.76 618.528C1582.86 618.528 1592.84 622.509 1602.96 631.475Z" fill="#FEFEFE"/>
<path d="M1806.36 619.513C1827.79 619.513 1842.9 633.129 1842.9 654.204C1842.9 675.278 1827.79 689.062 1806.36 689.062H1774.93V737.705H1762.35V619.513H1806.36ZM1774.93 630.804V677.771H1805.31C1819.98 677.771 1830.2 669.81 1830.2 654.204C1830.2 638.597 1820.08 630.804 1805.31 630.804H1774.93Z" fill="#FEFEFE"/>
<path d="M2033.33 737.705H2020.75V619.513H2033.33V737.705Z" fill="#FEFEFE"/>
<path d="M69.1475 31.2344H252.66V191.763H69.1475V31.2344ZM74.8888 249.1H246.919V822.442H74.8888V249.1Z" fill="#F16722"/>
<path d="M1366.33 567.874C1366.33 728.424 1290.62 833.922 1113.98 833.922C939.648 833.922 861.658 728.445 861.658 567.874V501.363C861.658 325.939 953.415 237.641 1113.98 237.641C1276.86 237.641 1366.33 325.939 1366.33 501.363V567.874ZM1194.36 559.851V509.407C1194.36 424.544 1176.01 382.123 1114.07 382.123C1052.13 382.123 1033.79 424.544 1033.79 509.407V559.851C1033.79 635.538 1042.97 689.418 1114.07 689.418C1185.16 689.418 1194.36 635.538 1194.36 559.851Z" fill="#F16722"/>
<path d="M1038.09 882.292L932.566 1212.53L821.511 822.442V462.377C821.511 288.106 722.861 237.641 610.465 237.641C549.699 237.641 507.226 269.734 488.934 292.673V249.1H321.472V822.442H493.502V494.491C493.502 421.171 516.446 384.406 576.101 384.406C631.147 384.406 649.439 418.804 649.439 495.644V822.442L854.492 1455.63H1015.08L1227.32 882.292H1038.09Z" fill="#F16722"/>
<path d="M1428.04 1105.9H1530.12V1088.7C1530.12 1032.49 1519.79 1010.73 1439.52 1010.73C1390.2 1010.73 1367.25 1019.88 1346.61 1049.69L1226.17 966.003C1270.91 894.903 1337.43 870.812 1459.01 870.812C1608.11 870.812 1697.56 913.254 1697.56 1089.83V1455.63H1530.12V1408.63C1510.62 1439.57 1479.65 1467.09 1416.58 1467.09C1304.16 1467.09 1217.01 1405.17 1217.01 1284.84C1217.01 1164.51 1308.77 1105.9 1428.04 1105.9ZM1530.12 1227.4H1452.09C1408.51 1227.4 1384.41 1242.29 1384.41 1280.15C1384.41 1313.39 1410.79 1331.74 1454.38 1331.74C1511.73 1331.74 1530.08 1297.35 1530.08 1244.6L1530.12 1227.4Z" fill="#F16722"/>
<path d="M2087.53 1058.89C2077.2 1041.69 2061.15 1017.6 2027.88 1017.6C1978.55 1017.6 1949.89 1052 1949.89 1128.84V1455.63H1777.86V882.292H1945.3V925.928C1962.5 904.141 2000.37 870.875 2065.72 870.875C2131.08 870.875 2182.73 902.989 2215.98 967.239L2087.53 1058.89Z" fill="#F16722"/>
<path d="M400.886 84.3391C397.073 79.9189 393.05 77.3003 383.788 77.3003C379.597 77.3003 374.338 78.0964 374.338 82.5375C374.338 85.9521 377.544 87.5651 386.805 89.3667C414.38 94.6039 424.648 105.665 424.648 124.162C424.648 144.294 410.336 156.151 384.396 156.151C363.861 156.151 350.576 151.731 341.524 139.392L364.867 122.486C368.303 127.116 372.305 130.321 383.725 130.321C390.368 130.321 394.391 128.52 394.391 124.896C394.391 121.271 390.954 119.679 381.504 117.647C358.769 112.62 344.081 103.36 344.081 83.6478C344.081 63.5371 358.56 51.4707 384.333 51.4707C400.823 51.4707 415.323 55.3043 423.16 68.2296L400.886 84.3391Z" fill="#FEFEFE"/>
<path d="M587.877 154.14H558.291V146.305C554.288 152.736 549.658 156.151 537.169 156.151C517.452 156.151 500.144 146.515 500.144 116.349V53.5029H530.338V110.693C530.338 124.372 533.565 130.405 543.623 130.405C553.681 130.405 557.704 124.77 557.704 110.902V53.5658H587.877V154.14Z" fill="#FEFEFE"/>
<path d="M754.962 110.692C754.962 136.836 741.677 156.151 716.323 156.151C707.292 156.151 701.048 154.747 696.606 152.15V192.371H666.433V53.5654H696.606V58.6559C701.237 54.2148 707.69 51.6172 716.533 51.6172C739.268 51.6172 754.962 67.9152 754.962 96.6776V110.692ZM724.789 108.074V99.2333C724.789 84.3389 721.562 76.9021 710.708 76.9021C699.854 76.9021 696.606 84.3389 696.606 99.2333V111.027C696.606 122.696 699.016 130.74 710.708 130.74C723.175 130.803 724.789 121.355 724.789 108.074Z" fill="#FEFEFE"/>
<path d="M910.376 138.868C903.335 151.144 891.266 156.151 872.952 156.151C841.166 156.151 827.483 135.642 827.483 110.693V96.6151C827.483 65.4227 843.575 51.5547 869.726 51.5547C898.914 51.5547 911.989 68.3136 911.989 99.7365V111.593H857.656C858.054 123.073 860.883 130.908 873.141 130.908C882.612 130.908 884.624 128.101 888.228 123.471L910.376 138.868ZM857.866 91.378H881.795C881.187 80.3171 876.976 76.9025 869.935 76.9025C862.077 76.9025 858.662 82.3282 857.866 91.378Z" fill="#FEFEFE"/>
<path d="M1042.85 84.549C1041.04 81.5324 1038.21 77.3007 1032.37 77.3007C1023.74 77.3007 1018.69 83.3339 1018.69 96.8248V154.14H988.512V53.5869H1017.85V61.2332C1020.38 58.1032 1023.61 55.6026 1027.27 53.9272C1030.94 52.2518 1034.94 51.447 1038.97 51.5759C1050.45 51.5759 1059.5 57.211 1065.33 68.4814L1042.85 84.549Z" fill="#FEFEFE"/>
<path d="M1163.62 92.7814H1181.54V89.7858C1181.54 79.919 1179.74 76.1064 1165.65 76.1064C1156.98 76.1064 1153.08 77.6985 1149.35 82.9356L1128.21 68.2716C1136.07 55.8072 1147.74 51.5127 1169.07 51.5127C1195.22 51.5127 1210.98 58.9495 1210.98 89.9324V154.14H1181.64V145.907C1178.23 151.333 1172.8 156.151 1161.72 156.151C1142 156.151 1126.72 145.3 1126.72 124.162C1126.72 103.025 1142.71 92.7814 1163.62 92.7814ZM1181.54 114.128H1167.85C1160.21 114.128 1155.97 116.726 1155.97 123.366C1155.97 129.211 1160.6 132.437 1168.25 132.437C1178.33 132.437 1181.54 126.383 1181.54 117.124V114.128Z" fill="#FEFEFE"/>
<path d="M1343.78 84.549C1341.98 81.5324 1339.15 77.3008 1333.31 77.3008C1324.65 77.3008 1319.62 83.334 1319.62 96.8249V154.14H1289.45V53.5869H1318.78V61.2332C1321.32 58.0995 1324.54 55.5963 1328.21 53.9205C1331.87 52.2447 1335.88 51.4421 1339.91 51.5759C1351.37 51.5759 1360.42 57.211 1366.27 68.4814L1343.78 84.549Z" fill="#FEFEFE"/>
<path d="M137.541 906.614C137.541 926.515 128.112 938.728 109.232 938.728C98.1898 938.728 91.3799 935.669 87.3149 929.259V965.437H79.3105V865.177H87.3149V874.332C91.3799 867.796 98.1898 864.318 109.232 864.318C127.232 864.318 137.541 875.484 137.541 896.097V906.614ZM129.558 906.614V896.139C129.558 880.323 122.454 871.755 108.604 871.755C93.2238 871.755 87.273 881.056 87.273 895.28V907.85C87.3987 921.508 92.6371 931.207 108.604 931.207C122.601 931.291 129.558 921.864 129.558 906.614Z" fill="#8CB63F"/>
<path d="M175.278 896.6H196.483V887.613C196.483 875.275 191.538 871.923 178.191 871.923C169.474 871.923 163.817 872.509 159.165 880.198L153.067 876.008C158.138 867.44 165.409 864.402 178.337 864.402C196.043 864.402 204.467 869.912 204.467 887.634V937.911H196.483V928.924C192.418 936.612 185.168 938.812 175.865 938.812C159.751 938.812 150.595 931.103 150.595 917.172C150.595 903.241 160.317 896.6 175.278 896.6ZM196.483 903.723H175.278C162.706 903.723 158.515 909.526 158.515 917.214C158.515 927.374 165.639 931.166 175.802 931.166C187.557 931.166 196.42 927.101 196.42 910.845L196.483 903.723Z" fill="#8CB63F"/>
<path d="M232.775 894.128V937.827H224.792V865.177H232.775V875.065C235.814 868.382 241.911 864.318 251.068 864.318C255.047 864.131 259.01 864.95 262.588 866.701C266.167 868.451 269.245 871.076 271.54 874.332L264.855 879.276C263.258 876.915 261.089 874.996 258.55 873.7C256.01 872.403 253.184 871.77 250.335 871.86C239.02 871.923 232.775 880.91 232.775 894.128Z" fill="#8CB63F"/>
<path d="M299.848 896.6H321.053V887.613C321.053 875.275 316.108 871.923 302.761 871.923C294.044 871.923 288.386 872.509 283.735 880.198L277.637 876.008C282.708 867.44 289.979 864.402 302.886 864.402C320.613 864.402 329.036 869.912 329.036 887.634V937.911H321.053V928.924C316.988 936.612 309.717 938.812 300.435 938.812C284.3 938.812 275.165 931.103 275.165 917.172C275.165 903.241 284.971 896.6 299.848 896.6ZM321.053 903.723H299.848C287.276 903.723 283.085 909.526 283.085 917.214C283.085 927.374 290.209 931.166 300.372 931.166C312.127 931.166 320.99 927.101 320.99 910.845L321.053 903.723Z" fill="#8CB63F"/>
</svg>
